<?xml version="1.0" standalone="no"?>
<!DOCTYPE svg PUBLIC "-//W3C//DTD SVG 20010904//EN"
 "http://www.w3.org/TR/2001/REC-SVG-20010904/DTD/svg10.dtd">
<svg version="1.0" xmlns="http://www.w3.org/2000/svg"
 width="265.000000pt" height="234.000000pt" viewBox="0 0 265.000000 234.000000"
 preserveAspectRatio="xMidYMid meet">

<g transform="translate(0.000000,234.000000) scale(0.100000,-0.100000)"
fill="#000000" stroke="none">
<path d="M1130 2171 c-206 -44 -423 -171 -554 -326 -304 -359 -337 -855 -83
-1238 352 -528 1088 -614 1547 -180 189 179 295 396 319 653 28 294 -76 589
-281 798 -154 158 -327 252 -540 296 -104 22 -298 20 -408 -3z m455 -181 c328
-104 562 -382 604 -717 54 -436 -245 -851 -678 -938 -111 -23 -294 -16 -401
15 -250 72 -466 269 -560 510 -189 491 99 1027 615 1146 94 21 331 13 420 -16z"/>
<path d="M1198 1519 c-17 -9 -18 -37 -18 -350 l0 -339 24 -11 c18 -8 29 -8 48
2 60 33 438 316 444 332 3 9 3 25 0 35 -4 9 -90 78 -192 152 -288 209 -272
199 -306 179z"/>
</g>
</svg>
