<?xml version="1.0" standalone="no"?>
<!DOCTYPE svg PUBLIC "-//W3C//DTD SVG 20010904//EN"
 "http://www.w3.org/TR/2001/REC-SVG-20010904/DTD/svg10.dtd">
<svg version="1.0" xmlns="http://www.w3.org/2000/svg"
 width="214.000000pt" height="234.000000pt" viewBox="0 0 214.000000 234.000000"
 preserveAspectRatio="xMidYMid meet">

<g transform="translate(0.000000,234.000000) scale(0.100000,-0.100000)"
fill="#000000" stroke="none">
<path d="M855 2315 c-364 -75 -657 -297 -819 -622 l-36 -71 0 -454 0 -453 41
-80 c193 -375 565 -613 989 -632 383 -17 752 159 983 468 70 94 90 135 83 165
-9 34 -45 64 -79 64 -33 0 -51 -18 -141 -140 -235 -319 -655 -466 -1048 -366
-360 91 -638 375 -731 746 -30 121 -30 339 0 460 105 417 432 711 858 770 185
26 390 -11 580 -104 174 -85 304 -197 404 -347 l43 -64 -227 -5 -227 -5 -24
-28 c-29 -34 -31 -66 -3 -101 l20 -26 310 0 309 0 0 355 c0 201 -4 355 -9 355
-5 0 -19 -9 -32 -19 -23 -18 -24 -25 -29 -190 l-5 -171 -53 69 c-99 130 -240
241 -407 322 -257 123 -499 157 -750 104z"/>
</g>
</svg>
