<?xml version="1.0" standalone="no"?>
<!DOCTYPE svg PUBLIC "-//W3C//DTD SVG 20010904//EN"
 "http://www.w3.org/TR/2001/REC-SVG-20010904/DTD/svg10.dtd">
<svg version="1.0" xmlns="http://www.w3.org/2000/svg"
 width="273.000000pt" height="273.000000pt" viewBox="0 0 273.000000 273.000000"
 preserveAspectRatio="xMidYMid meet">

<g transform="translate(0.000000,273.000000) scale(0.100000,-0.100000)"
fill="#000000" stroke="none">
<path d="M1111 2705 c-275 -57 -496 -172 -693 -363 -326 -316 -478 -779 -397
-1207 55 -290 166 -509 359 -709 266 -275 570 -411 950 -423 131 -4 172 -2
267 16 291 56 533 181 733 381 187 187 330 453 372 689 6 36 15 70 20 76 4 5
8 95 8 200 0 105 -4 195 -8 201 -5 5 -14 40 -21 77 -17 95 -80 269 -134 368
-113 208 -292 396 -492 519 -284 174 -646 240 -964 175z m489 -170 c281 -59
520 -206 701 -433 109 -136 176 -273 227 -461 22 -85 25 -116 26 -271 1 -161
-1 -184 -28 -285 -59 -230 -165 -414 -329 -572 -147 -142 -290 -229 -475 -287
-673 -212 -1381 208 -1528 904 -22 105 -25 332 -5 440 92 511 508 908 1026
979 93 13 292 6 385 -14z"/>
<path d="M979 1870 c-42 -12 -77 -40 -101 -79 -23 -36 -23 -38 -23 -426 0
-390 0 -390 23 -427 13 -20 40 -47 60 -60 37 -23 41 -23 404 -26 235 -2 382 1
406 8 53 14 91 45 113 94 17 37 19 72 19 401 0 231 -4 374 -11 400 -14 50 -64
100 -114 114 -46 13 -734 14 -776 1z"/>
</g>
</svg>
