<?xml version="1.0" standalone="no"?>
<!DOCTYPE svg PUBLIC "-//W3C//DTD SVG 20010904//EN"
 "http://www.w3.org/TR/2001/REC-SVG-20010904/DTD/svg10.dtd">
<svg version="1.0" xmlns="http://www.w3.org/2000/svg"
 width="387.000000pt" height="271.000000pt" viewBox="0 0 387.000000 271.000000"
 preserveAspectRatio="xMidYMid meet">

<g transform="translate(0.000000,271.000000) scale(0.100000,-0.100000)"
fill="#000000" stroke="none">
<path d="M0 1715 l0 -996 66 51 c127 97 219 130 389 137 191 8 335 -22 683
-141 259 -89 462 -153 624 -197 145 -40 157 -45 232 -101 82 -62 205 -128 292
-158 45 -16 54 -16 68 -4 9 8 11 9 6 2 -11 -13 -14 -35 -4 -25 3 3 18 1 32 -4
22 -9 31 -5 66 28 l41 38 -35 -38 c-29 -31 -32 -39 -20 -47 16 -11 16 -10 45
-14 11 -2 46 -13 77 -25 32 -12 63 -19 69 -15 7 4 9 3 6 -3 -4 -5 19 -23 49
-39 59 -30 149 -113 159 -145 6 -18 25 -19 516 -19 l509 0 0 420 c-1 251 -4
420 -10 420 -5 0 -14 -8 -19 -19 -6 -10 -18 -21 -28 -25 -10 -3 -1 10 20 29
l37 35 0 925 0 925 -50 0 c-39 0 -50 -3 -50 -16 0 -9 -13 -44 -30 -78 -62
-131 -213 -225 -361 -226 -59 0 -156 20 -168 34 -19 25 -44 125 -50 201 l-6
80 -1577 2 -1578 3 0 -995z m702 878 c-11 -16 -33 -39 -48 -53 -15 -14 -8 -1
17 27 48 58 62 69 31 26z m-571 -496 c-10 -9 -11 -8 -5 6 3 10 9 15 12 12 3
-3 0 -11 -7 -18z m-32 -52 c-12 -19 -23 -35 -25 -35 -6 0 14 40 29 58 18 23
16 12 -4 -23z m3665 -1293 c-16 -15 -31 -26 -34 -24 -5 4 47 52 57 52 3 0 -7
-12 -23 -28z m6 -76 c0 -2 -12 -12 -27 -21 l-28 -18 19 21 c17 20 36 29 36 18z
m50 -40 c0 -2 -7 -7 -16 -10 -8 -3 -12 -2 -9 4 6 10 25 14 25 6z m-75 -46 c-3
-6 -21 -17 -38 -26 -36 -19 -31 -9 10 17 34 21 36 22 28 9z m-75 -44 c0 -2 -7
-7 -16 -10 -8 -3 -12 -2 -9 4 6 10 25 14 25 6z m-293 -22 c-3 -3 -12 -4 -19
-1 -8 3 -5 6 6 6 11 1 17 -2 13 -5z m-42 -13 c-12 -9 -125 -41 -146 -40 -8 0
20 11 61 23 87 27 98 29 85 17z m130 -1 c-3 -5 -12 -10 -18 -10 -7 0 -6 4 3
10 19 12 23 12 15 0z m-456 -84 c-2 -2 -22 -6 -44 -9 -28 -5 -34 -4 -20 3 19
8 73 14 64 6z m-450 -9 c-2 -1 -15 -11 -29 -22 l-25 -20 19 23 c11 12 24 22
29 22 6 0 8 -1 6 -3z m41 -1 c0 -2 -12 -11 -27 -20 l-28 -17 24 20 c23 21 31
25 31 17z m45 -4 c-23 -20 -106 -71 -100 -62 4 6 28 24 53 40 47 29 65 38 47
22z m55 3 c0 -2 -9 -9 -20 -15 -12 -6 -20 -7 -20 -1 0 5 8 12 18 14 9 3 18 5
20 6 1 0 2 -1 2 -4z m60 -5 c-8 -5 -22 -9 -30 -9 -10 0 -8 3 5 9 27 12 43 12
25 0z m99 6 c-2 -2 -17 -6 -34 -10 -22 -5 -26 -4 -15 4 14 9 59 15 49 6z m338
-2 c-3 -3 -12 -4 -19 -1 -8 3 -5 6 6 6 11 1 17 -2 13 -5z m230 0 c-3 -3 -12
-4 -19 -1 -8 3 -5 6 6 6 11 1 17 -2 13 -5z m-329 -11 c-10 -2 -28 -2 -40 0
-13 2 -5 4 17 4 22 1 32 -1 23 -4z m279 1 c-3 -3 -12 -4 -19 -1 -8 3 -5 6 6 6
11 1 17 -2 13 -5z m-927 -8 c0 -2 -8 -10 -17 -17 -16 -13 -17 -12 -4 4 13 16
21 21 21 13z m185 -22 c-26 -20 -55 -36 -55 -30 0 5 63 46 70 46 3 -1 -4 -8
-15 -16z m125 6 c-8 -5 -19 -10 -25 -10 -5 0 -3 5 5 10 8 5 20 10 25 10 6 0 3
-5 -5 -10z m-220 -3 c0 -2 -10 -12 -22 -23 l-23 -19 19 23 c18 21 26 27 26 19z
m-85 -47 c-21 -22 -42 -40 -47 -40 -7 0 73 79 82 80 2 0 -14 -18 -35 -40z
m320 30 c-3 -5 -12 -10 -18 -10 -7 0 -6 4 3 10 19 12 23 12 15 0z m-365 -4 c0
-2 -8 -10 -17 -17 -16 -13 -17 -12 -4 4 13 16 21 21 21 13z m35 -4 c-6 -4 -24
-18 -40 -32 -29 -24 -29 -23 2 8 18 17 36 32 40 32 4 0 3 -3 -2 -8z m713 1
c-10 -2 -28 -2 -40 0 -13 2 -5 4 17 4 22 1 32 -1 23 -4z m-588 -16 c0 -2 -24
-23 -52 -46 l-53 -43 50 46 c48 44 55 50 55 43z m50 -1 c0 -2 -18 -15 -40 -30
-22 -14 -40 -24 -40 -22 0 5 71 56 77 56 2 0 3 -2 3 -4z m109 0 c-10 -9 -69
-36 -69 -32 0 7 52 35 64 36 5 0 7 -2 5 -4z m-224 -26 c-10 -11 -22 -20 -28
-20 -5 0 1 9 14 20 31 25 37 25 14 0z m255 10 c-8 -5 -19 -10 -25 -10 -5 0 -3
5 5 10 8 5 20 10 25 10 6 0 3 -5 -5 -10z m167 4 c-3 -3 -12 -4 -19 -1 -8 3 -5
6 6 6 11 1 17 -2 13 -5z m-337 -39 c-7 -8 -17 -15 -23 -15 -6 0 -2 7 9 15 25
19 30 19 14 0z m110 10 c0 -2 -13 -11 -30 -20 -38 -19 -40 -11 -2 9 31 17 32
18 32 11z m60 -30 c-14 -8 -29 -14 -35 -14 -5 0 1 6 15 14 14 8 30 14 35 14 6
0 -1 -6 -15 -14z m-160 1 c0 -2 -8 -10 -17 -17 -16 -13 -17 -12 -4 4 13 16 21
21 21 13z m-55 -16 c-3 -5 -12 -10 -18 -10 -7 0 -6 4 3 10 19 12 23 12 15 0z
m105 -14 c0 -2 -7 -7 -16 -10 -8 -3 -12 -2 -9 4 6 10 25 14 25 6z m40 -30 c0
-2 -7 -7 -16 -10 -8 -3 -12 -2 -9 4 6 10 25 14 25 6z"/>
</g>
</svg>
